<svg width="60" height="60" viewBox="0 0 60 60" fill="none" xmlns="http://www.w3.org/2000/svg">
<path d="M35 36.25H32.5C32.5 39.7026 35.8576 42.5 40 42.5C42.185 42.5 44.1524 41.7212 45.5238 40.4774L43.1788 39.1388C42.3688 39.6576 41.3012 40.0012 40 40.0012C36.7926 40.0012 35 37.9126 35 36.25Z" fill="black"/>
<path fill-rule="evenodd" clip-rule="evenodd" d="M24.3324 16.095C25.1262 15.395 25.7788 14.45 26.0038 13.5475C26.1312 13.035 26.1912 12.2237 25.625 11.5687C25.0462 10.8975 24.19 10.8237 23.5162 10.9087C23.0832 10.9631 22.6476 10.9948 22.2112 11.0037C21.8238 11.0162 21.3612 11.0325 20.8512 11.1975C20.32 11.37 19.8175 11.6725 19.2163 12.1162C18.8235 12.4044 18.4529 12.7215 18.1075 13.065C16.0713 11.615 13.45 11.0487 9.33625 11.25C8.83895 11.255 8.36403 11.4573 8.01591 11.8124C7.66779 12.1676 7.47501 12.6465 7.47999 13.1437C7.48497 13.641 7.68727 14.116 8.04243 14.4641C8.39757 14.8122 8.87647 15.005 9.37375 15H11.1713C11.2788 15.0737 11.3813 15.145 11.4775 15.2137L8.63999 18.7637C8.08669 18.8095 7.55045 18.9775 7.06999 19.2557C6.58953 19.5339 6.17683 19.9154 5.86169 20.3724C5.54657 20.8296 5.33685 21.351 5.24771 21.8988C5.15857 22.4468 5.19223 23.0078 5.34625 23.5412L5.70875 24.7912C5.93435 25.5718 6.40737 26.258 7.05663 26.7464C7.70587 27.235 8.49623 27.4994 9.30875 27.5H13.2113C13.4833 27.4998 13.7479 27.5886 13.965 27.7524L16.3938 29.5874C16.6063 29.7474 16.8288 29.8812 17.0588 29.9912C18.505 33.9038 20.0612 37.2362 21.8238 39.4562L22.2238 44.2688C21.81 44.5872 21.5062 45.0272 21.3552 45.5272C21.2042 46.027 21.2136 46.5616 21.382 47.056C21.5502 47.5502 21.8692 47.9794 22.294 48.2834C22.7186 48.5872 23.2278 48.7504 23.75 48.75H27.5C27.8316 48.75 28.1494 48.6182 28.3838 48.3838C28.6184 48.1494 28.75 47.8316 28.75 47.5V37.5H38.015C39.7162 39.0824 41.6862 40.39 44.4588 41.0388L44.7276 44.2674C44.3134 44.5856 44.0094 45.0254 43.858 45.5252C43.7066 46.025 43.7154 46.5596 43.8834 47.054C44.0514 47.5484 44.3698 47.9778 44.7944 48.282C45.2188 48.5862 45.7278 48.7498 46.25 48.75H50C50.3316 48.75 50.6494 48.6182 50.8838 48.3838C51.1184 48.1494 51.25 47.8316 51.25 47.5V26.25C51.25 22.6 50.2876 20.0562 48.7038 18.425C47.12 16.795 45.085 16.25 43.2938 16.25H26.875C25.9376 16.25 25.0962 16.1937 24.3324 16.095ZM13.93 13.9737C13.98 14.0162 14.0263 14.0587 14.0725 14.1012C14.3069 14.3152 14.4512 14.6103 14.476 14.9267C14.5009 15.2431 14.4044 15.5571 14.2063 15.805L10.2263 20.78C10.1092 20.9266 9.96069 21.0448 9.79169 21.1262C9.62269 21.2076 9.43755 21.25 9.24999 21.25H8.94999C8.75611 21.25 8.56487 21.295 8.39139 21.3814C8.21789 21.468 8.06693 21.5938 7.95041 21.7488C7.83389 21.9036 7.75501 22.0836 7.72001 22.2744C7.68501 22.465 7.69485 22.6612 7.74875 22.8474L8.10875 24.0974C8.18407 24.3578 8.34197 24.5866 8.55863 24.7494C8.77529 24.9122 9.03899 25 9.30999 25H13.2125C14.0282 25 14.8216 25.266 15.4725 25.7574L17.9013 27.5924C18.0488 27.7024 18.1988 27.7724 18.3475 27.81C18.5445 27.8606 18.7261 27.9586 18.8766 28.0954C19.0271 28.2322 19.142 28.4038 19.2113 28.595C20.7712 32.9024 22.3488 36.2124 23.9938 38.1588C24.1612 38.3574 24.2626 38.6034 24.2838 38.8624L24.7888 44.9124C24.815 45.2252 24.7228 45.5362 24.5304 45.784C24.338 46.0318 24.0594 46.198 23.75 46.25H26.25V36.25C26.25 35.9184 26.3816 35.6006 26.6162 35.3662C26.8506 35.1316 27.1684 35 27.5 35H38.5124C38.8384 35 39.1516 35.1274 39.385 35.355C41.11 37.0338 42.9626 38.285 45.8326 38.7674C46.1062 38.8138 46.3568 38.9498 46.5446 39.1542C46.7324 39.3586 46.847 39.6196 46.87 39.8962L47.2888 44.9138C47.3148 45.2262 47.2224 45.537 47.03 45.7844C46.8376 46.032 46.5592 46.198 46.25 46.25H48.75V26.25C48.75 23.025 47.905 21.1924 46.91 20.1674C45.915 19.1425 44.5974 18.75 43.2938 18.75H26.875C24.0126 18.75 21.9124 18.2712 20.1574 17.6725C19.8988 17.5843 19.6762 17.4137 19.5237 17.1869C19.3712 16.9601 19.2972 16.6896 19.3131 16.4168C19.329 16.1439 19.4338 15.8838 19.6116 15.6762C19.7894 15.4687 20.0304 15.3251 20.2976 15.2675C21.1512 15.0837 21.96 14.7662 22.4538 14.4025C22.8064 14.139 23.1084 13.8137 23.345 13.4425C22.9376 13.48 22.615 13.4912 22.355 13.5H22.3512C21.9012 13.5162 21.77 13.5275 21.6226 13.575C21.4726 13.625 21.2238 13.7425 20.6988 14.1287C20.0588 14.6 19.5788 15.1012 19.2988 15.515C19.1968 15.6646 19.0636 15.7902 18.9084 15.8833C18.7531 15.9763 18.5795 16.0346 18.3996 16.0539C18.2196 16.0733 18.0376 16.0534 17.8661 15.9955C17.6946 15.9376 17.5377 15.8432 17.4063 15.7187C16.5425 14.9025 15.515 14.2962 13.93 13.9737Z" fill="black"/>
<path d="M55 32.5C55 33.8812 54.44 35 53.75 35C53.06 35 52.5 33.8812 52.5 32.5C52.5 31.1188 53.06 30 53.75 30C54.44 30 55 31.1188 55 32.5Z" fill="black"/>
<path fill-rule="evenodd" clip-rule="evenodd" d="M40.625 18.75V16.25C40.6938 16.25 47.0462 16.25 47.1412 16.2525C49.6626 16.295 51.7112 16.8 53.1076 18.1412C54.5212 19.5 55 21.4576 55 23.75H52.5C52.5 21.74 52.0712 20.6138 51.375 19.945C50.66 19.2575 49.395 18.7912 47.1 18.7525H46.82L40.625 18.75Z" fill="black"/>
<path d="M52.5 23.75H55L54.375 32.5H53.125L52.5 23.75Z" fill="black"/>
<path fill-rule="evenodd" clip-rule="evenodd" d="M31.6574 38.1039L33.8424 37.2113L34.7888 39.5238L32.605 40.4188L31.6574 38.1039ZM34.845 42.3224L36.1688 39.8601L38.3712 41.045L37.0462 43.5075L34.845 42.3224ZM40.5424 43.8924L40.0112 41.1474L42.4662 40.6725L42.9962 43.4174L40.5424 43.8924ZM37.9074 35.355C37.7802 35.467 37.678 35.6047 37.6078 35.7589C37.5376 35.9131 37.5008 36.0804 37.5 36.25H40C40 36.455 39.9474 36.8889 39.5624 37.2289C39.4272 37.3475 39.269 37.4368 39.0974 37.4912C38.926 37.5456 38.7452 37.564 38.5662 37.545C38.3266 37.5158 38.0964 37.4346 37.8912 37.3074L37.8874 37.305C37.6186 37.1336 37.3638 36.9412 37.125 36.73C36.4518 36.1408 35.8014 35.5263 35.175 34.8875C33.7624 33.4663 32.1212 31.6713 31.465 30.7001L33.535 29.3C34.0438 30.0512 35.5274 31.695 36.9474 33.125C37.526 33.7152 38.1264 34.2836 38.7474 34.8288C38.9762 35.0224 39.11 35.1201 39.1612 35.1539C39.0536 35.1023 38.9376 35.07 38.8188 35.0588C38.6546 35.0428 38.489 35.0609 38.3322 35.1119C38.1754 35.1629 38.0308 35.2456 37.9074 35.355Z" fill="black"/>
</svg>
