<svg width="60" height="60" viewBox="0 0 60 60" fill="none" xmlns="http://www.w3.org/2000/svg">
<g clip-path="url(#clip0_3_158)">
<g clip-path="url(#clip1_3_158)">
<g clip-path="url(#clip2_3_158)">
<g clip-path="url(#clip3_3_158)">
<g clip-path="url(#clip4_3_158)">
<g clip-path="url(#clip5_3_158)">
<g clip-path="url(#clip6_3_158)">
<g clip-path="url(#clip7_3_158)">
<path d="M48.1053 13.9708C47.6368 13.8433 47.1428 13.7035 46.6395 13.5642C46.6983 13.2171 46.707 12.8351 46.6379 12.4368C46.4167 11.1665 44.7307 10.3995 44.7307 10.3995C44.7307 10.3995 43.486 11.6161 43.612 12.8474C43.2039 12.7793 42.8112 12.7322 42.4405 12.7138C42.3381 12.3446 42.1881 11.9688 41.9772 11.6027C41.0714 10.0247 38.4679 9.81995 38.4679 9.81995C38.4679 9.81995 37.3302 12.1736 38.2349 13.7501C38.514 14.235 38.8575 14.6364 39.2272 14.9528C38.3568 14.5642 37.3922 14.3491 36.3789 14.3491C33.9561 14.3491 31.7473 15.5974 30.4914 17.606C29.3998 17.1129 28.214 16.8559 27.0093 16.8559C24.2178 16.8559 21.6757 18.1912 20.0957 20.4164C18.5622 19.0918 16.6012 18.3525 14.5415 18.3525C9.85202 18.3525 6.03708 22.1674 6.03708 26.8563C6.03708 28.2398 6.37552 29.5976 7.01962 30.8162C6.65661 31.6589 6.46614 32.5754 6.46614 33.496C6.46614 36.9955 9.13675 39.8827 12.5467 40.2273V46.6995C12.5467 47.5479 13.2343 48.2356 14.0827 48.2356C14.9311 48.2356 15.6187 47.5479 15.6187 46.6995V40.6144C16.5398 40.9856 17.5249 41.1796 18.531 41.1796C18.5842 41.1796 18.6375 41.174 18.6907 41.173V48.7476C18.6907 49.596 19.3784 50.2836 20.2267 50.2836C21.0751 50.2836 21.7628 49.596 21.7628 48.7476V40.4802C22.3045 40.2345 22.8206 39.9293 23.2988 39.5612C24.7841 40.7183 26.6012 41.346 28.5053 41.346C29.5385 41.346 30.5451 41.154 31.4908 40.7982V46.6995C31.4908 47.5479 32.1784 48.2356 33.0268 48.2356C33.8752 48.2356 34.5628 47.5479 34.5628 46.6995V40.022C35.4701 40.4526 36.4665 40.6815 37.4833 40.6815C37.7076 40.6815 37.9282 40.6692 38.1469 40.6482V48.7476C38.1469 49.596 38.8345 50.2836 39.6829 50.2836C40.5313 50.2836 41.2189 49.596 41.2189 48.7476V39.5643C43.0867 38.3411 44.3252 36.2332 44.3252 33.8385C44.3252 33.5825 44.3109 33.326 44.2822 33.0705C46.0066 31.4639 46.984 29.231 46.984 26.8558C46.984 25.1857 46.4828 23.579 45.5929 22.2171C45.9749 22.3169 46.3799 22.4214 46.8135 22.5386C50.7555 23.6056 53.4972 22.3507 54.1183 20.0564C54.7394 17.7632 52.0467 15.0383 48.1053 13.9708ZM42.5398 31.8735L42.0581 32.2641L42.1804 32.8724C42.2449 33.1903 42.2772 33.516 42.2772 33.8396C42.2772 34.9736 41.8794 36.0156 41.2189 36.8368C40.4708 37.7671 39.3839 38.4097 38.1469 38.5822C37.9293 38.613 37.7091 38.634 37.4833 38.634C36.426 38.634 35.4005 38.2771 34.5628 37.6299C34.4917 37.5751 34.4195 37.5214 34.3514 37.4625L33.6464 36.8522L32.9731 37.4973C32.5251 37.9259 32.0254 38.2822 31.4908 38.5628C30.5764 39.0431 29.5575 39.299 28.5053 39.299C26.8203 39.299 25.2249 38.6503 24.0135 37.4727L23.2972 36.7769L22.5835 37.4758C22.3285 37.7257 22.0525 37.9469 21.7633 38.1424C20.857 38.7553 19.7992 39.0953 18.6912 39.126C18.638 39.127 18.5853 39.1337 18.5315 39.1337C17.5024 39.1337 16.5035 38.8587 15.6192 38.3401C15.526 38.2853 15.4334 38.2305 15.3427 38.1706L14.9521 37.911L14.5005 38.0375C14.0771 38.1552 13.6506 38.2157 13.2318 38.2157C12.9983 38.2157 12.771 38.1931 12.5467 38.1604C10.2698 37.827 8.51415 35.8661 8.51415 33.4981C8.51415 32.7193 8.70872 31.9467 9.07736 31.2637L9.35794 30.7425L9.04664 30.2392C8.41739 29.2213 8.0851 28.0524 8.0851 26.8584C8.0851 23.2984 10.9815 20.4025 14.5415 20.4025C16.4656 20.4025 18.2755 21.2525 19.5084 22.7342L20.5196 23.9497L21.2154 22.5304C22.3111 20.295 24.5312 18.906 27.0098 18.906C28.2007 18.906 29.3675 19.2377 30.3844 19.8655L31.4007 20.4932L31.8656 19.3929C32.6336 17.5742 34.4051 16.3992 36.3789 16.3992C38.8084 16.3992 40.8415 18.1431 41.2117 20.5459L41.2865 21.0297L41.7104 21.275C43.7006 22.4291 44.9365 24.5682 44.9365 26.8579C44.9365 28.8117 44.0631 30.6406 42.5398 31.8735Z" fill="#00425A"/>
</g>
</g>
</g>
</g>
</g>
</g>
</g>
</g>
<defs>
<clipPath id="clip0_3_158">
<rect width="48.2812" height="40.3601" fill="white" transform="translate(5.9816 9.8717)"/>
</clipPath>
<clipPath id="clip1_3_158">
<rect width="48.1703" height="40.4636" fill="white" transform="translate(6.03708 9.81995)"/>
</clipPath>
<clipPath id="clip2_3_158">
<rect width="48.1703" height="40.4636" fill="white" transform="translate(6.03708 9.81995)"/>
</clipPath>
<clipPath id="clip3_3_158">
<rect width="48.1703" height="40.4636" fill="white" transform="translate(6.03708 9.81995)"/>
</clipPath>
<clipPath id="clip4_3_158">
<rect width="48.1703" height="40.4636" fill="white" transform="translate(6.03708 9.81995)"/>
</clipPath>
<clipPath id="clip5_3_158">
<rect width="48.1703" height="40.4636" fill="white" transform="translate(6.03708 9.81995)"/>
</clipPath>
<clipPath id="clip6_3_158">
<rect width="48.1703" height="40.4636" fill="white" transform="translate(6.03708 9.81995)"/>
</clipPath>
<clipPath id="clip7_3_158">
<rect width="48.1703" height="40.4636" fill="white" transform="translate(6.03708 9.81995)"/>
</clipPath>
</defs>
</svg>
